<svg xmlns="http://www.w3.org/2000/svg" viewBox="0 0 100 100">
  <rect width="100" height="100" rx="20" fill="#122034"/>
  <g transform="translate(24,12) scale(0.62)">
    <path fill="#ffffff" d="M40.79.91L.15,88.07c-.49,1.05.28,2.25,1.43,2.25h13.03c2.46,0,4.7-1.43,5.74-3.65L50.75,21.47c.79-1.7.79-3.65,0-5.35L43.66.91c-.57-1.22-2.3-1.22-2.87,0Z"/>
    <path fill="#bc554b" d="M32.3,73.49l-6.8,14.58c-.49,1.05.28,2.25,1.43,2.25h13.03c2.46,0,4.7-1.43,5.74-3.65l6.8-14.58c.49-1.05-.28-2.25-1.43-2.25h-13.03c-2.46,0-4.7,1.43-5.74,3.65Z"/>
    <path fill="#3a6fa6" d="M46.49,48.91l17.61,37.76c1.04,2.23,3.28,3.65,5.74,3.65h13.03c1.16,0,1.92-1.2,1.43-2.25l-17.61-37.76c-1.04-2.23-3.28-3.65-5.74-3.65h-13.03c-1.16,0-1.92,1.2-1.43,2.25Z"/>
  </g>
</svg>
