<?xml version="1.0" encoding="UTF-8"?>
<svg id="Capa_2" data-name="Capa 2" xmlns="http://www.w3.org/2000/svg" viewBox="0 0 432.25 93.1">
  <defs>
    <style>
      .cls-1 {
        fill: #fff;
      }

      .cls-2 {
        fill: #3a6fa6;
      }

      .cls-3 {
        fill: #bc554b;
      }
    </style>
  </defs>
  <g id="Capa_1-2" data-name="Capa 1">
    <g>
      <g>
        <path class="cls-1" d="m131.1,0h9.36l18.25,47.84h-7.65l-4.99-13.33h-20.57l-4.99,13.33h-7.65L131.1,0Zm12.44,27.68l-7.72-20.64-7.79,20.64h15.51Z"/>
        <path class="cls-1" d="m183.99,47.84L167.59,0h7.79l13.05,39.43L201.42,0h7.86l-16.4,47.84h-8.88Z"/>
        <path class="cls-1" d="m226.7,0h33.55v6.83h-26.04v12.98h21.66v6.83h-21.66v14.35h26.04v6.83h-33.55V0Z"/>
        <path class="cls-1" d="m277.75,0h10.25l20.16,37.93V0h7.52v47.84h-10.25l-20.16-37.93v37.93h-7.52V0Z"/>
        <path class="cls-1" d="m370,0v4.03l-25.9,36.97h25.56v6.83h-35.88v-4.03l25.9-36.97h-25.49V0h35.81Z"/>
        <path class="cls-1" d="m404.65,0h9.36l18.25,47.84h-7.65l-4.99-13.33h-20.57l-4.99,13.33h-7.65L404.65,0Zm12.44,27.68l-7.72-20.64-7.79,20.64h15.51Z"/>
      </g>
      <g>
        <path class="cls-2" d="m112.86,72.24h14.23v2.9h-11.04v5.51h9.19v2.9h-9.19v8.98h-3.19v-20.28Z"/>
        <path class="cls-2" d="m128.71,72.24h3.19v20.28h-3.19v-20.28Z"/>
        <path class="cls-2" d="m133.92,72.24h4.35l8.55,16.08v-16.08h3.19v20.28h-4.35l-8.55-16.08v16.08h-3.19v-20.28Z"/>
        <path class="cls-2" d="m159.33,72.24h3.97l7.74,20.28h-3.25l-2.12-5.65h-8.72l-2.12,5.65h-3.24l7.74-20.28Zm5.27,11.73l-3.27-8.75-3.3,8.75h6.58Z"/>
        <path class="cls-2" d="m172.34,72.24h4.35l8.55,16.08v-16.08h3.19v20.28h-4.35l-8.55-16.08v16.08h-3.19v-20.28Z"/>
        <path class="cls-2" d="m200.57,74.76c-1.04,0-2,.17-2.88.52-.88.35-1.64.85-2.27,1.51-.64.66-1.14,1.46-1.49,2.41s-.54,2.02-.54,3.22.18,2.27.54,3.22.86,1.74,1.49,2.39c.64.65,1.39,1.14,2.27,1.49.88.35,1.84.52,2.88.52,1.7,0,3.16-.44,4.39-1.3,1.23-.87,2.06-2.12,2.51-3.74h3.39c-.25,1.22-.68,2.31-1.27,3.29-.6.98-1.34,1.81-2.23,2.51-.89.69-1.9,1.23-3.04,1.61-1.14.38-2.39.56-3.74.56-1.56,0-2.99-.26-4.29-.77-1.29-.51-2.4-1.23-3.33-2.16-.93-.93-1.64-2.04-2.14-3.33s-.75-2.72-.75-4.29.25-2.99.75-4.29c.5-1.29,1.22-2.41,2.14-3.33.93-.93,2.04-1.65,3.33-2.16s2.72-.77,4.29-.77c1.33,0,2.57.19,3.71.56,1.14.38,2.15.91,3.04,1.59.89.69,1.64,1.51,2.25,2.48.61.97,1.04,2.05,1.29,3.25h-3.42c-.46-1.6-1.3-2.84-2.51-3.7-1.21-.86-2.66-1.29-4.36-1.29Z"/>
        <path class="cls-2" d="m212.74,72.24h3.19v20.28h-3.19v-20.28Z"/>
        <path class="cls-2" d="m225.25,72.24h3.97l7.74,20.28h-3.25l-2.12-5.65h-8.72l-2.12,5.65h-3.24l7.74-20.28Zm5.27,11.73l-3.27-8.75-3.3,8.75h6.58Z"/>
        <path class="cls-2" d="m238.26,72.24h3.19v17.38h10.46v2.9h-13.65v-20.28Z"/>
        <path class="cls-2" d="m270.6,74.76c-1.04,0-2,.17-2.88.52-.88.35-1.64.85-2.27,1.51-.64.66-1.14,1.46-1.49,2.41s-.54,2.02-.54,3.22.18,2.27.54,3.22.86,1.74,1.49,2.39c.64.65,1.39,1.14,2.27,1.49.88.35,1.84.52,2.88.52,1.7,0,3.16-.44,4.39-1.3,1.23-.87,2.06-2.12,2.51-3.74h3.39c-.25,1.22-.68,2.31-1.27,3.29-.6.98-1.34,1.81-2.23,2.51-.89.69-1.9,1.23-3.04,1.61-1.14.38-2.39.56-3.74.56-1.56,0-2.99-.26-4.29-.77s-2.4-1.23-3.33-2.16c-.93-.93-1.64-2.04-2.14-3.33s-.75-2.72-.75-4.29.25-2.99.75-4.29,1.22-2.41,2.14-3.33c.93-.93,2.04-1.65,3.33-2.16s2.72-.77,4.29-.77c1.33,0,2.57.19,3.71.56,1.14.38,2.15.91,3.04,1.59.89.69,1.64,1.51,2.25,2.48.61.97,1.04,2.05,1.29,3.25h-3.42c-.46-1.6-1.3-2.84-2.51-3.7-1.21-.86-2.66-1.29-4.36-1.29Z"/>
        <path class="cls-2" d="m292.88,71.86c1.56,0,2.99.26,4.29.77,1.29.51,2.4,1.23,3.33,2.16.93.93,1.65,2.04,2.16,3.33s.77,2.72.77,4.29-.26,2.99-.77,4.29-1.23,2.4-2.16,3.33c-.93.93-2.04,1.65-3.33,2.16-1.29.51-2.72.77-4.29.77s-2.99-.26-4.29-.77-2.4-1.23-3.33-2.16c-.93-.93-1.64-2.04-2.14-3.33s-.75-2.72-.75-4.29.25-2.99.75-4.29c.5-1.29,1.22-2.41,2.14-3.33.93-.93,2.04-1.65,3.33-2.16s2.72-.77,4.29-.77Zm0,2.9c-1.04,0-2,.17-2.88.52-.88.35-1.64.85-2.27,1.51-.64.66-1.14,1.46-1.49,2.41s-.54,2.02-.54,3.22.18,2.27.54,3.22.86,1.74,1.49,2.39c.64.65,1.39,1.14,2.27,1.49.88.35,1.84.52,2.88.52s2.03-.17,2.91-.52c.88-.35,1.64-.84,2.28-1.49.64-.65,1.13-1.44,1.49-2.39.36-.95.54-2.02.54-3.22s-.18-2.27-.54-3.22c-.36-.95-.85-1.75-1.49-2.41-.64-.66-1.4-1.16-2.28-1.51-.88-.35-1.85-.52-2.91-.52Z"/>
        <path class="cls-2" d="m305.05,72.24h4.35l8.55,16.08v-16.08h3.19v20.28h-4.35l-8.55-16.08v16.08h-3.19v-20.28Z"/>
        <path class="cls-2" d="m335.94,87.16c0-.62-.15-1.11-.46-1.48-.31-.37-.72-.67-1.22-.9s-1.07-.42-1.71-.56c-.64-.15-1.28-.29-1.94-.45-.83-.19-1.69-.41-2.56-.64s-1.68-.55-2.39-.97c-.72-.42-1.3-.97-1.75-1.65s-.68-1.58-.68-2.68c0-.98.19-1.85.58-2.59.39-.74.91-1.37,1.58-1.88s1.45-.9,2.36-1.16c.91-.26,1.89-.39,2.96-.39s2.1.13,2.98.39c.89.26,1.68.59,2.39.97.7.39,1.32.82,1.85,1.29.53.47.98.93,1.35,1.38l-2.26,2.06c-.77-.93-1.68-1.69-2.71-2.28-1.03-.59-2.25-.88-3.64-.88-.75,0-1.39.09-1.91.26s-.95.4-1.27.68c-.33.28-.57.6-.72.97-.15.37-.23.74-.23,1.13,0,.56.14,1.01.41,1.35.27.34.63.61,1.07.83.44.21.95.38,1.52.51.57.13,1.15.27,1.75.42.58.14,1.18.28,1.8.43.62.16,1.23.33,1.83.52.6.19,1.16.43,1.68.71s.99.62,1.39,1.03c.41.41.72.89.96,1.45s.35,1.23.35,2c0,1.01-.19,1.88-.58,2.62-.39.74-.91,1.36-1.58,1.85-.67.49-1.44.87-2.33,1.12-.89.25-1.84.38-2.84.38-1.06,0-2.08-.13-3.06-.38-.98-.25-1.86-.58-2.67-.97s-1.5-.84-2.1-1.32c-.6-.48-1.06-.96-1.39-1.42l2.26-2.06c.97,1.06,2.03,1.86,3.2,2.41s2.39.81,3.67.81,2.2-.24,2.96-.73c.75-.48,1.13-1.21,1.13-2.17Z"/>
        <path class="cls-2" d="m340.72,72.24h3.19v13.27c0,1.51.44,2.67,1.32,3.48.88.81,2.1,1.22,3.67,1.22s2.69-.41,3.56-1.22c.87-.81,1.3-1.97,1.3-3.48v-13.27h3.19v13.01c0,1.22-.19,2.31-.57,3.29s-.92,1.8-1.64,2.48c-.72.68-1.58,1.19-2.58,1.55-1.01.36-2.14.54-3.42.54s-2.32-.18-3.32-.54c-1-.36-1.84-.87-2.54-1.55-.69-.68-1.23-1.5-1.61-2.48s-.57-2.07-.57-3.29v-13.01Z"/>
        <path class="cls-2" d="m358.83,72.24h3.19v17.38h10.46v2.9h-13.65v-20.28Z"/>
        <path class="cls-2" d="m377.14,75.14h-6.35v-2.9h15.88v2.9h-6.35v17.39h-3.19v-17.39Z"/>
        <path class="cls-2" d="m388.27,72.24h3.19v20.28h-3.19v-20.28Z"/>
        <path class="cls-2" d="m393.48,72.24h4.35l8.55,16.08v-16.08h3.19v20.28h-4.35l-8.55-16.08v16.08h-3.19v-20.28Z"/>
        <path class="cls-2" d="m421.59,82.09h10.66v.32c0,1.56-.26,2.99-.77,4.29s-1.23,2.4-2.16,3.33c-.93.93-2.04,1.65-3.33,2.16-1.29.51-2.72.77-4.29.77s-2.99-.26-4.29-.77c-1.29-.51-2.4-1.23-3.33-2.16-.93-.93-1.65-2.04-2.16-3.33-.51-1.29-.77-2.72-.77-4.29s.26-2.99.77-4.29c.51-1.29,1.23-2.41,2.16-3.33.93-.93,2.04-1.65,3.33-2.16s2.72-.77,4.29-.77c1.33,0,2.57.19,3.71.56,1.14.38,2.15.91,3.04,1.59.89.69,1.64,1.51,2.25,2.48.61.97,1.04,2.05,1.29,3.25h-3.45c-.44-1.6-1.27-2.84-2.48-3.7-1.21-.86-2.66-1.29-4.36-1.29-1.04,0-2,.17-2.88.52-.88.35-1.64.85-2.27,1.51-.64.66-1.14,1.46-1.49,2.41s-.54,2.02-.54,3.22.18,2.27.54,3.22.86,1.74,1.49,2.39c.64.65,1.39,1.14,2.27,1.49.88.35,1.84.52,2.88.52,1.72,0,3.19-.44,4.4-1.3,1.22-.87,2.05-2.12,2.49-3.74h-7.01v-2.9Z"/>
      </g>
      <g>
        <path class="cls-1" d="m40.79.91L.15,88.07c-.49,1.05.28,2.25,1.43,2.25h13.03c2.46,0,4.7-1.43,5.74-3.65L50.75,21.47c.79-1.7.79-3.65,0-5.35L43.66.91c-.57-1.22-2.3-1.22-2.87,0Z"/>
        <path class="cls-3" d="m32.3,73.49l-6.8,14.58c-.49,1.05.28,2.25,1.43,2.25h13.03c2.46,0,4.7-1.43,5.74-3.65l6.8-14.58c.49-1.05-.28-2.25-1.43-2.25h-13.03c-2.46,0-4.7,1.43-5.74,3.65Z"/>
        <path class="cls-2" d="m46.49,48.91l17.61,37.76c1.04,2.23,3.28,3.65,5.74,3.65h13.03c1.16,0,1.92-1.2,1.43-2.25l-17.61-37.76c-1.04-2.23-3.28-3.65-5.74-3.65h-13.03c-1.16,0-1.92,1.2-1.43,2.25Z"/>
      </g>
    </g>
  </g>
</svg>